<?xml version="1.0" standalone="no"?>
<!DOCTYPE svg PUBLIC "-//W3C//DTD SVG 20010904//EN"
 "http://www.w3.org/TR/2001/REC-SVG-20010904/DTD/svg10.dtd">
<svg version="1.0" xmlns="http://www.w3.org/2000/svg"
 width="1280.000000pt" height="1280.000000pt" viewBox="0 0 1280.000000 1280.000000"
 preserveAspectRatio="xMidYMid meet">

<g transform="translate(0.000000,1280.000000) scale(0.100000,-0.100000)"
fill="#000000" stroke="none">
<path d="M0 6400 l0 -6400 6400 0 6400 0 0 6400 0 6400 -6400 0 -6400 0 0
-6400z m6546 3564 c168 -107 257 -165 429 -278 82 -55 364 -238 625 -407 261
-169 546 -354 634 -411 87 -56 164 -104 172 -106 12 -3 14 -156 14 -1009 l0
-1005 -62 -76 c-34 -42 -164 -180 -288 -307 -271 -276 -340 -349 -340 -361 0
-5 -7 -18 -15 -28 -27 -35 -17 8 10 49 14 20 20 35 13 33 -7 -2 -17 -14 -23
-26 -13 -28 -34 -37 -28 -11 4 12 0 19 -9 19 -24 0 -56 42 -63 83 -4 21 -13
37 -21 37 -8 0 -16 18 -20 49 -4 34 -14 57 -30 72 -13 12 -24 30 -24 40 0 11
-9 19 -22 21 -26 4 -47 68 -22 68 8 0 14 5 14 10 0 15 -21 12 -42 -7 -18 -16
-18 -16 -12 3 7 17 6 18 -12 5 -10 -8 -4 0 15 17 18 18 38 29 44 25 5 -3 7 -1
4 4 -4 6 10 24 30 39 20 16 73 61 118 99 45 39 114 95 153 125 39 30 74 62 78
70 3 8 6 146 5 305 0 160 3 324 8 365 4 41 6 77 4 80 -3 3 -30 -24 -61 -60
-208 -240 -583 -569 -622 -545 -17 10 -2 23 23 19 12 -2 4 3 -19 11 -25 10
-46 26 -53 41 -6 14 -15 23 -20 20 -11 -7 -55 50 -66 84 -4 14 -16 37 -26 52
-11 14 -19 31 -19 36 0 6 -13 16 -30 24 -24 10 -30 19 -30 43 0 16 -4 25 -8
19 -4 -5 -18 -10 -31 -10 -22 0 -20 4 20 39 24 21 79 64 122 97 43 33 152 121
242 195 147 123 165 142 188 193 26 59 67 183 112 337 15 50 45 141 67 203 23
62 39 114 37 115 -28 21 -422 267 -428 267 -4 0 -30 -19 -57 -42 -28 -24 -88
-72 -134 -108 -46 -36 -118 -92 -160 -125 -306 -239 -386 -301 -555 -426 -104
-77 -201 -149 -215 -160 -14 -11 -30 -17 -37 -15 -6 3 -14 0 -17 -7 -5 -9 -7
-9 -12 1 -3 6 -10 10 -15 6 -5 -3 -9 0 -9 6 0 7 -7 9 -16 6 -20 -8 -69 38 -59
54 4 6 2 9 -3 8 -14 -4 -152 142 -152 161 0 6 46 45 103 88 123 95 573 444
673 522 122 96 268 217 282 234 8 9 11 20 8 26 -4 5 -68 49 -144 97 -75 48
-180 116 -232 151 l-94 63 -31 -29 c-71 -68 -863 -644 -1052 -765 -18 -12 -32
-26 -33 -32 0 -6 24 -63 54 -125 83 -175 113 -241 186 -409 38 -85 85 -189
105 -230 21 -41 43 -91 51 -112 7 -21 36 -72 63 -114 28 -42 51 -80 51 -83 0
-4 -16 -22 -35 -41 -38 -37 -47 -37 -16 -1 20 23 18 47 -3 66 -6 6 -27 42 -46
80 -19 39 -37 72 -41 75 -3 3 -9 15 -13 28 -4 12 -14 22 -22 22 -9 0 -12 5 -8
12 5 8 0 9 -15 5 -19 -5 -21 -3 -9 11 7 9 18 21 23 25 6 5 3 7 -6 4 -17 -6
-49 25 -49 46 0 8 4 7 11 -3 8 -12 10 -12 7 -1 -7 24 -36 37 -54 26 -20 -13
-19 -31 1 -27 7 1 16 -2 20 -8 9 -14 -28 -13 -43 2 -7 7 -12 25 -12 40 0 18
-5 28 -15 28 -9 0 -18 7 -21 15 -4 8 -12 15 -19 15 -7 0 -16 6 -18 13 -3 7 -6
5 -6 -5 -1 -14 -10 -18 -41 -18 -37 0 -40 2 -40 27 0 15 -10 37 -22 50 -27 29
-58 30 -58 3 0 -11 -7 -20 -15 -20 -11 0 -15 11 -15 39 0 25 -5 41 -15 45 -8
3 -15 15 -15 26 0 11 -4 20 -10 20 -5 0 -10 7 -10 15 0 8 -4 15 -10 15 -5 0
-10 18 -10 40 0 36 -2 40 -25 40 -22 0 -25 4 -25 40 0 28 -4 40 -14 40 -17 0
-76 54 -76 69 0 6 -4 11 -9 11 -13 0 -71 56 -71 69 0 6 -7 11 -15 11 -11 0
-15 11 -15 40 0 22 -5 40 -11 40 -7 0 -10 18 -7 49 3 47 1 50 -50 100 -28 28
-56 50 -61 48 -9 -2 -81 70 -81 82 0 3 -18 19 -40 36 l-40 29 22 14 c23 13 23
13 -4 9 -16 -2 -28 0 -28 5 0 5 -5 6 -11 2 -8 -5 -8 -9 1 -14 15 -9 5 -15 -40
-25 -50 -11 -71 -26 -65 -50 3 -11 2 -14 -1 -7 -8 18 -22 15 -26 -5 -3 -17 -4
-17 -10 -1 -4 10 -2 23 5 28 29 26 236 173 532 380 176 122 388 271 470 330
363 258 912 630 929 630 7 0 66 -34 132 -76z m-2142 -759 c-8 -165 -14 -324
-14 -352 0 -29 -4 -53 -10 -53 -6 0 -11 87 -12 228 -2 143 -7 227 -13 227 -18
0 -64 -109 -100 -240 -60 -214 -76 -267 -80 -263 -2 2 12 86 31 188 35 182 86
358 161 552 l38 98 7 -43 c3 -23 0 -177 -8 -342z m4039 328 c13 -27 56 -109
95 -183 39 -74 84 -175 101 -225 34 -100 83 -296 76 -303 -2 -3 -7 1 -10 9 -2
8 -35 102 -71 209 -73 210 -98 264 -138 294 -26 20 -26 20 -56 -2 -16 -12 -32
-22 -35 -22 -3 0 -5 61 -5 135 0 74 4 135 9 135 5 0 20 -21 34 -47z m-4303
-793 c-7 -22 -16 -40 -20 -40 -4 0 -6 -12 -3 -27 3 -23 2 -25 -6 -8 -7 17 -10
13 -21 -25 -6 -25 -17 -54 -25 -65 -27 -44 -145 -438 -158 -530 l-4 -30 -2 31
c0 18 8 78 19 133 18 87 43 167 137 429 18 50 14 58 -19 42 -12 -7 0 8 28 34
28 25 57 59 64 76 18 44 26 28 10 -20z m500 -20 c0 -5 -2 -10 -4 -10 -3 0 -8
5 -11 10 -3 6 -1 10 4 10 6 0 11 -4 11 -10z m4214 -107 c183 -114 592 -392
620 -422 44 -46 50 -135 40 -586 -5 -209 -10 -347 -12 -307 -3 74 -22 94 -22
24 -1 -20 -7 -55 -15 -77 -8 -22 -15 -53 -16 -70 -1 -17 -3 -22 -6 -12 -3 12
-15 17 -44 17 -21 0 -39 5 -39 10 0 6 5 10 11 10 6 0 4 7 -5 15 -8 8 -27 14
-43 14 -23 -2 -24 -2 -5 -6 12 -2 22 -9 22 -14 0 -14 -58 -11 -63 4 -3 9 -7 9
-20 -1 -13 -11 -17 -10 -26 6 -18 34 -60 53 -127 58 -56 3 -64 2 -64 -14 0
-14 -2 -15 -10 -2 -6 10 -6 16 0 18 19 7 10 24 -10 19 -19 -5 -20 0 -21 71 -2
61 -3 69 -8 37 -4 -22 -9 100 -13 272 -5 211 -11 319 -19 334 -24 46 -89 253
-114 364 -26 117 -35 146 -74 243 -11 28 -18 52 -14 52 3 0 47 -26 97 -57z
m-4345 5 c10 -30 9 -31 -4 -14 -8 11 -15 26 -15 33 0 22 8 14 19 -19z m-413
-60 c-3 -13 -5 -33 -5 -45 -1 -13 -6 -23 -11 -23 -9 0 -8 20 7 73 6 25 14 21
9 -5z m-39 -210 c-3 -8 -6 -5 -6 6 -1 11 2 17 5 13 3 -3 4 -12 1 -19z m793
-211 c0 -16 -18 3 -23 25 -6 22 -5 22 8 4 8 -11 15 -24 15 -29z m25 -27 c3 -5
1 -10 -4 -10 -6 0 -11 5 -11 10 0 6 2 10 4 10 3 0 8 -4 11 -10z m43 -60 c13
-16 19 -30 14 -30 -4 0 -16 14 -25 30 -10 17 -16 30 -14 30 2 0 13 -13 25 -30z
m96 -65 c-7 -16 -24 -21 -24 -6 0 8 7 13 27 20 1 1 0 -6 -3 -14z m-1112 -17
c-7 -7 -12 -8 -12 -2 0 14 12 26 19 19 2 -3 -1 -11 -7 -17z m1099 -30 c11 -21
11 -22 -4 -9 -10 7 -17 17 -17 22 0 15 9 10 21 -13z m75 -45 c-7 -7 -26 7 -26
19 0 6 6 6 15 -2 9 -7 13 -15 11 -17z m34 -58 c0 -5 -5 -3 -10 5 -5 8 -10 20
-10 25 0 6 5 3 10 -5 5 -8 10 -19 10 -25z m-36 10 c3 -8 1 -15 -4 -15 -6 0
-10 7 -10 15 0 8 2 15 4 15 2 0 6 -7 10 -15z m1017 -23 c-13 -4 -41 16 -41 29
0 5 12 2 26 -8 15 -9 21 -19 15 -21z m-977 -38 c3 -8 2 -12 -4 -9 -6 3 -10 10
-10 16 0 14 7 11 14 -7z m36 -34 c0 -5 -2 -10 -4 -10 -3 0 -8 5 -11 10 -3 6
-1 10 4 10 6 0 11 -4 11 -10z m20 -35 c7 -9 8 -15 2 -15 -5 0 -12 7 -16 15 -3
8 -4 15 -2 15 2 0 9 -7 16 -15z m79 -109 c-3 -3 -11 5 -18 17 -13 21 -12 21 5
5 10 -10 16 -20 13 -22z m26 -26 c3 -5 1 -10 -4 -10 -6 0 -11 5 -11 10 0 6 2
10 4 10 3 0 8 -4 11 -10z m-684 -388 c-119 -120 -218 -217 -220 -215 -7 5 38
82 72 126 39 51 338 307 357 307 4 0 -91 -98 -209 -218z m850 171 c13 -16 12
-17 -3 -4 -10 7 -18 15 -18 17 0 8 8 3 21 -13z m39 -48 c7 -9 8 -15 2 -15 -5
0 -12 7 -16 15 -3 8 -4 15 -2 15 2 0 9 -7 16 -15z m3507 -17 c-3 -8 -6 -5 -6
6 -1 11 2 17 5 13 3 -3 4 -12 1 -19z m213 -68 c0 -5 -2 -10 -4 -10 -3 0 -8 5
-11 10 -3 6 -1 10 4 10 6 0 11 -4 11 -10z m-4357 -324 c4 4 7 -4 7 -17 0 -13
7 -107 16 -209 8 -102 17 -328 21 -503 l6 -317 98 -68 c162 -111 180 -124 340
-244 142 -107 181 -141 220 -192 14 -19 14 -19 -19 -1 -18 11 -57 38 -87 60
-54 40 -156 112 -450 316 -88 61 -168 118 -177 127 -17 14 -18 53 -18 537 0
288 3 538 7 556 l7 34 10 -43 c6 -24 14 -40 19 -36z m574 -212 c37 -26 93 -66
123 -89 30 -23 116 -83 190 -135 208 -145 286 -206 310 -245 12 -19 38 -54 57
-78 20 -23 42 -55 48 -72 12 -27 48 -200 149 -710 48 -241 98 -543 94 -557 -3
-7 -12 26 -22 73 -10 46 -47 214 -82 373 -36 159 -80 366 -99 460 -58 286 -72
352 -84 373 -6 12 -45 52 -88 89 -43 38 -83 74 -89 79 -6 6 -85 66 -175 135
-210 161 -401 313 -418 334 -27 32 16 17 86 -30z m2283 -759 c0 -8 -2 -15 -4
-15 -2 0 -6 7 -10 15 -3 8 -1 15 4 15 6 0 10 -7 10 -15z m-3700 -751 c0 -2 -9
0 -20 6 -11 6 -20 13 -20 16 0 2 9 0 20 -6 11 -6 20 -13 20 -16z m4055 -254
c81 -17 199 -46 263 -66 64 -19 147 -44 185 -55 37 -11 67 -24 67 -28 0 -5
-22 -17 -50 -26 -49 -16 -51 -16 -197 19 -82 20 -222 53 -313 74 -145 33 -165
41 -168 59 -4 25 22 53 48 53 11 0 85 -14 165 -30z m-4360 -2345 l0 -60 -235
-1 c-129 0 -241 -1 -247 -2 -34 -5 -1 -54 62 -93 24 -15 50 -19 135 -19 233 0
304 -37 314 -164 2 -23 2 -33 -1 -23 -2 9 -10 17 -18 17 -7 0 -15 5 -17 11 -5
15 -111 48 -123 38 -6 -4 -20 -6 -30 -4 -11 2 -83 5 -160 6 -114 2 -128 4 -75
9 36 4 55 7 43 8 -12 1 -25 7 -28 12 -3 6 -19 10 -35 10 -16 0 -32 5 -35 10
-3 6 -14 10 -24 10 -10 0 -24 7 -31 15 -7 9 -26 14 -49 12 -29 -2 -37 -6 -37
-22 0 -11 4 -23 10 -27 6 -4 8 -10 4 -13 -9 -9 -48 35 -64 72 -18 42 -18 107
0 141 16 31 60 73 96 93 28 16 198 26 410 25 l135 -1 0 -60z m4105 0 l0 -64
-395 -1 -395 0 0 58 c0 32 3 62 7 65 3 4 181 7 395 7 l388 0 0 -65z m1526 -39
c2 -49 6 -91 9 -94 3 -3 81 -6 174 -6 193 -1 205 -5 251 -87 24 -43 25 -50 25
-234 l0 -190 -64 -8 c-44 -5 -67 -4 -77 4 -11 9 -14 48 -14 180 0 209 9 199
-167 199 l-123 0 0 -189 c0 -105 -3 -192 -7 -194 -5 -3 -37 -7 -73 -9 l-65 -3
-3 240 c-2 132 -6 280 -10 328 l-8 88 61 33 c33 19 66 33 74 32 11 -1 15 -23
17 -90z m-3362 -23 c3 -42 6 -123 6 -180 0 -56 4 -103 9 -103 9 0 138 113 171
149 47 51 71 61 151 61 l79 0 -56 -72 c-31 -40 -94 -113 -140 -161 -47 -48
-82 -92 -79 -96 2 -5 -2 -14 -10 -21 -8 -7 -12 -17 -8 -24 4 -6 -17 8 -47 32
-29 23 -58 41 -64 39 -6 -2 -14 -26 -17 -53 -4 -36 -6 -40 -7 -16 -2 29 -4 31
-21 20 -11 -7 -17 -16 -15 -20 3 -4 1 -8 -5 -8 -5 0 -11 4 -13 9 -5 16 -58 0
-59 -18 -1 -9 -5 9 -9 39 -10 69 -12 484 -3 493 3 4 34 7 68 7 l62 0 7 -77z
m-1146 -73 l263 0 -15 -27 c-22 -42 -72 -93 -93 -94 -10 -1 -88 -4 -173 -8
-149 -6 -155 -7 -158 -28 -2 -14 3 -23 15 -26 10 -2 3 -4 -14 -4 -18 0 -33 4
-33 10 0 5 -7 7 -15 4 -8 -4 -17 -2 -20 4 -4 5 -11 7 -16 4 -5 -4 -9 0 -9 7 0
10 -2 10 -9 -1 -5 -7 -14 -10 -20 -7 -6 4 -11 0 -12 -11 0 -16 -1 -16 -9 2 -8
19 -4 143 6 174 3 8 12 11 27 7 12 -3 140 -6 285 -6z m484 -145 c7 -162 11
-202 22 -226 5 -11 -3 -20 -29 -32 -47 -22 -54 -22 -86 9 l-28 27 5 -24 5 -24
-11 24 c-20 46 -39 378 -23 395 4 4 37 6 73 4 l65 -3 7 -150z m-924 126 c38
-32 52 -83 51 -183 -1 -51 -4 -84 -6 -74 -3 11 -16 30 -28 44 -23 24 -26 25
-63 13 -33 -11 -46 -11 -78 0 -52 18 -256 18 -309 0 -22 -7 -58 -27 -79 -44
l-39 -31 23 32 c13 18 42 41 64 51 48 23 167 41 274 41 79 0 110 9 98 29 -5 7
-49 11 -125 11 -65 0 -166 3 -224 7 l-107 6 0 59 0 58 263 0 c243 0 266 -1
285 -19z m1346 -42 c8 -80 6 -266 -4 -304 -6 -23 -8 -25 -9 -8 -1 20 -5 21
-51 18 -28 -2 -54 -6 -59 -9 -5 -3 -12 2 -16 12 -10 21 -20 316 -12 337 5 11
23 15 75 15 l69 0 7 -61z m1279 41 c14 -11 35 -41 47 -66 l22 -45 -53 -78
c-52 -76 -55 -78 -86 -71 -17 4 -79 8 -138 9 -58 1 -112 4 -120 7 -8 3 -29 1
-47 -5 -18 -6 -49 -12 -68 -14 -59 -6 -80 -23 -81 -65 -3 -69 -17 54 -18 148
0 99 16 142 68 177 33 22 42 23 241 23 192 0 209 -1 233 -20z m1391 10 c35
-13 58 -64 64 -141 6 -83 -6 -105 -71 -134 -45 -20 -77 -24 -234 -32 -100 -5
-185 -12 -189 -16 -12 -11 14 -57 32 -57 12 0 10 -5 -10 -21 -14 -11 -24 -25
-21 -30 4 -5 1 -9 -5 -9 -6 0 -8 -4 -5 -10 3 -5 0 -11 -7 -11 -7 -1 3 -5 22
-9 33 -7 33 -7 -14 -9 -84 -2 -39 -20 59 -24 l90 -3 -99 -2 c-89 -2 -103 0
-133 21 -45 30 -51 61 -55 254 -5 243 -6 242 329 242 122 1 233 -3 247 -9z
m734 -62 l3 -68 -183 -1 c-101 0 -201 -3 -223 -7 l-40 -7 -3 -75 c-4 -83 12
-146 39 -161 10 -5 49 -9 88 -9 41 0 71 -4 71 -10 0 -5 -18 -10 -39 -10 -22 0
-42 -4 -45 -8 -2 -4 11 -6 30 -4 19 2 34 0 35 -4 0 -5 2 -19 3 -31 2 -13 -1
-23 -6 -23 -4 0 -7 -5 -5 -12 1 -8 -22 -12 -78 -14 -44 -1 -61 0 -37 3 46 4
48 22 4 25 -17 0 -11 4 18 8 36 6 39 7 15 9 -29 2 -29 2 -11 16 11 8 15 15 9
15 -6 0 -16 -7 -23 -15 -7 -8 -22 -15 -34 -15 -15 0 -17 3 -7 9 18 12 -2 23
-26 14 -16 -6 -16 -5 -4 10 7 9 9 17 4 17 -14 0 -58 -41 -56 -51 2 -4 -4 -6
-12 -3 -19 8 -19 24 0 24 8 0 15 7 15 16 0 15 -2 15 -24 1 -22 -15 -24 -14
-47 26 -22 38 -24 53 -24 168 0 122 1 127 28 162 15 20 38 42 50 49 22 13 233
25 417 24 l95 -1 3 -67z m-1598 -243 l0 -215 -95 0 -95 0 0 208 c0 115 3 212
7 215 3 4 46 7 95 7 l88 0 0 -215z m-4365 165 c13 -6 15 -9 5 -9 -8 0 -22 4
-30 9 -18 12 -2 12 25 0z m1866 -40 c12 0 49 -61 48 -80 0 -13 -1 -13 -6 0 -3
8 -24 33 -47 54 -22 22 -33 37 -23 33 10 -4 23 -7 28 -7z m1259 -175 c7 -11
-8 -1 -33 23 -26 23 -55 42 -64 42 -15 0 -15 2 -3 9 15 10 73 -33 100 -74z
m-1203 43 c-3 -7 -5 -2 -5 12 0 14 2 19 5 13 2 -7 2 -19 0 -25z m3073 -74
c-37 -8 -88 -9 -84 -2 3 4 26 7 52 7 26 -1 40 -3 32 -5z m153 -11 c-7 -2 -19
-2 -25 0 -7 3 -2 5 12 5 14 0 19 -2 13 -5z m117 -13 c0 -12 -7 -20 -17 -20
-14 0 -15 2 -4 9 10 6 6 11 -15 19 l-29 10 33 1 c26 1 32 -3 32 -19z m-75 -9
c-3 -5 5 -12 17 -14 22 -4 22 -4 2 -6 -12 0 -27 6 -34 14 -10 12 -9 15 4 15
10 0 15 -4 11 -9z m742 -43 c-3 -7 -5 -2 -5 12 0 14 2 19 5 13 2 -7 2 -19 0
-25z m-686 -1 c-10 -9 -11 -8 -5 6 3 10 9 15 12 12 3 -3 0 -11 -7 -18z m-43
-14 c-10 -2 -26 -2 -35 0 -10 3 -2 5 17 5 19 0 27 -2 18 -5z m45 -20 c-7 -2
-19 -2 -25 0 -7 3 -2 5 12 5 14 0 19 -2 13 -5z m-7347 -365 c4 -7 3 -8 -5 -4
-6 4 -18 2 -26 -4 -8 -7 -15 -8 -15 -3 0 23 33 32 46 11z m144 -18 c0 -5 -4
-10 -10 -10 -5 0 -10 5 -10 10 0 6 5 10 10 10 6 0 10 -4 10 -10z m-244 -17
c18 -24 17 -34 -2 -26 -9 3 -20 0 -25 -8 -7 -11 -9 -9 -9 8 0 17 4 21 18 17
14 -5 14 -3 -2 10 -13 10 -15 16 -7 16 8 0 20 -8 27 -17z m109 -4 c0 -18 -47
-19 -51 -1 -1 7 0 8 3 2 6 -12 43 -13 43 -1 0 5 -5 12 -10 14 -6 3 -5 4 2 3 7
-2 13 -9 13 -17z m164 -12 c-13 -28 -29 -27 -29 1 0 13 2 14 9 4 6 -10 10 -8
14 9 4 13 9 21 12 17 3 -3 0 -17 -6 -31z m-112 1 c-3 -8 -6 -5 -6 6 -1 11 2
17 5 13 3 -3 4 -12 1 -19z m60 -10 c-3 -8 -6 -5 -6 6 -1 11 2 17 5 13 3 -3 4
-12 1 -19z m-307 -21 c10 -20 10 -20 -3 -5 -8 10 -17 15 -20 11 -4 -3 -7 1 -7
11 0 21 16 12 30 -17z m450 22 c12 -8 10 -9 -7 -4 -21 6 -33 -8 -15 -18 4 -2
1 -2 -5 -1 -7 2 -13 0 -13 -4 0 -5 6 -14 13 -21 10 -11 8 -11 -10 -2 -22 11
-22 13 -7 36 18 28 23 29 44 14z m-485 -29 c19 -8 19 -9 -2 -9 -17 -1 -21 -5
-16 -18 5 -15 3 -14 -10 2 -28 34 -17 44 28 25z m573 -54 c-4 -25 -33 -33 -54
-15 -13 10 -12 15 7 35 17 19 25 21 36 12 8 -6 13 -21 11 -32z m-628 -19 c0
-6 -9 -2 -20 8 -11 10 -20 23 -20 28 0 6 9 2 20 -8 11 -10 20 -23 20 -28z
m-90 -87 c8 -5 11 -10 5 -10 -5 0 -21 10 -35 21 -24 20 -5 13 30 -11z m454 5
c30 -27 33 -55 10 -90 -33 -50 -114 -38 -128 19 -19 74 61 123 118 71z m339 6
c-30 -25 -29 -29 5 -23 l27 5 -20 -23 -20 -23 30 7 c22 5 26 4 15 -4 -18 -12
-50 -13 -50 -2 0 4 6 14 13 21 10 11 8 12 -10 6 -15 -4 -23 -2 -23 6 0 16 30
49 44 49 6 -1 1 -9 -11 -19z m-856 -78 c14 -17 14 -17 9 0 -4 12 0 17 15 17
19 0 19 -1 5 -16 -9 -8 -14 -20 -11 -25 11 -17 -1 -9 -25 16 -13 14 -20 25
-15 25 4 0 14 -8 22 -17z m688 -45 c38 -165 38 -168 8 -168 -30 0 -151 40
-162 54 -10 12 0 26 51 75 67 65 94 75 103 39z m225 2 c-8 -5 -24 -9 -35 -9
-16 1 -16 2 5 9 35 11 48 11 30 0z m-519 -101 c23 -46 35 -58 85 -84 32 -16
60 -36 62 -43 2 -7 -23 -25 -61 -43 -48 -22 -67 -36 -71 -55 -4 -14 -11 -22
-15 -19 -5 3 -7 -3 -4 -13 6 -23 -30 -68 -46 -58 -7 5 -24 34 -38 66 -23 54
-29 60 -75 77 -27 9 -54 23 -60 30 -15 18 6 40 51 54 20 6 43 16 51 22 16 12
50 77 50 94 0 14 23 34 35 30 5 -2 22 -28 36 -58z m549 36 c0 -11 -10 -15 -32
-14 -31 2 -31 2 -5 6 15 2 27 9 27 14 0 5 2 9 5 9 3 0 5 -7 5 -15z m-952 -22
c-10 -2 -18 -11 -18 -18 0 -7 8 -16 18 -18 9 -3 1 -5 -18 -5 -19 0 -29 2 -22
5 6 2 12 13 12 24 0 13 7 19 23 18 16 -1 18 -2 5 -6z m946 -70 c-5 -5 -12 -12
-15 -16 -3 -5 -9 -2 -12 7 -5 12 0 16 15 16 12 0 17 -3 12 -7z m-21 -40 c-7
-2 -19 -2 -25 0 -7 3 -2 5 12 5 14 0 19 -2 13 -5z m-933 -10 c-14 -3 -28 -10
-32 -17 -5 -7 -8 -5 -8 7 0 13 8 17 33 16 27 -2 28 -2 7 -6z m37 -69 c-3 -3
-12 -4 -19 -1 -8 3 -5 6 6 6 11 1 17 -2 13 -5z m888 -62 c-3 -3 -12 3 -21 14
-13 16 -15 17 -10 2 4 -13 0 -18 -15 -18 -19 0 -19 1 -5 16 9 8 13 21 9 27 -3
7 6 1 20 -12 15 -14 25 -27 22 -29z m-865 -1 c0 -6 -5 -13 -11 -17 -8 -4 -7
-9 2 -15 10 -6 7 -9 -10 -9 -24 0 -24 0 -5 21 l19 22 -30 -7 c-22 -5 -26 -4
-15 4 19 12 50 13 50 1z m4 -62 c-9 -10 -22 -19 -28 -19 -6 1 -1 9 12 19 12
11 22 25 23 33 0 10 2 10 6 0 3 -7 -3 -22 -13 -33z m800 6 c11 -8 16 -15 10
-15 -5 0 -18 7 -28 15 -11 8 -16 15 -10 15 5 0 18 -7 28 -15z m-686 -87 c17
-17 -25 -63 -45 -47 -14 12 -18 41 -6 52 10 11 38 8 51 -5z m612 -31 c0 -6 -9
-2 -20 8 -11 10 -20 23 -20 28 0 6 9 2 20 -8 11 -10 20 -23 20 -28z m-56 -46
c-6 -6 -11 1 -18 29 l-7 25 15 -25 c8 -14 12 -27 10 -29z m-476 26 c8 -9 6
-19 -7 -36 -15 -20 -21 -22 -37 -12 -18 11 -17 11 4 6 20 -6 32 8 15 18 -5 2
-2 2 5 1 15 -4 16 8 0 24 -8 8 -8 12 -1 12 6 0 15 -6 21 -13z m447 -7 c3 -5
-1 -10 -10 -10 -9 0 -13 5 -10 10 3 6 8 10 10 10 2 0 7 -4 10 -10z m-375 -48
c0 -14 -2 -14 -9 -3 -7 11 -10 9 -16 -8 -4 -13 -9 -20 -11 -18 -3 2 1 16 7 30
13 28 29 27 29 -1z m276 -29 c-5 -12 -10 -11 -26 10 -25 32 -25 36 0 30 12 -3
21 0 21 8 1 8 4 4 6 -9 3 -13 2 -30 -1 -39z m-249 25 c-3 -8 -6 -5 -6 6 -1 11
2 17 5 13 3 -3 4 -12 1 -19z m333 12 c0 -5 -2 -10 -4 -10 -3 0 -8 5 -11 10 -3
6 -1 10 4 10 6 0 11 -4 11 -10z m-174 -18 c1 -7 0 -8 -3 -2 -7 14 -43 13 -43
-2 0 -6 -3 -9 -6 -5 -3 3 -3 11 1 17 9 15 48 9 51 -8z m-166 -22 c0 -5 -4 -10
-10 -10 -5 0 -10 5 -10 10 0 6 5 10 10 10 6 0 10 -4 10 -10z m57 -12 c-3 -8
-6 -5 -6 6 -1 11 2 17 5 13 3 -3 4 -12 1 -19z m113 3 c0 -15 -32 -23 -44 -11
-8 8 -6 9 5 5 10 -4 20 -2 24 4 8 13 15 14 15 2z"/>
<path d="M6066 7897 c3 -10 9 -15 12 -12 3 3 0 11 -7 18 -10 9 -11 8 -5 -6z"/>
<path d="M5531 7834 c0 -11 3 -14 6 -6 3 7 2 16 -1 19 -3 4 -6 -2 -5 -13z"/>
<path d="M5537 7783 c-4 -3 -7 -11 -7 -17 0 -6 5 -5 12 2 6 6 9 14 7 17 -3 3
-9 2 -12 -2z"/>
<path d="M9673 1955 c0 -23 16 -33 30 -19 8 8 -10 44 -22 44 -5 0 -8 -11 -8
-25z"/>
<path d="M6660 2311 c-22 -4 -36 -12 -38 -23 -3 -16 9 -18 138 -18 141 0 141
0 138 23 -3 21 -7 22 -103 23 -55 1 -116 -1 -135 -5z"/>
<path d="M7981 2296 c-25 -30 -1 -36 155 -36 l155 0 -3 23 c-3 22 -6 22 -149
25 -119 2 -148 0 -158 -12z"/>
<path d="M8728 2033 c12 -2 32 -2 45 0 12 2 2 4 -23 4 -25 0 -35 -2 -22 -4z"/>
<path d="M8728 2013 c7 -3 16 -2 19 1 4 3 -2 6 -13 5 -11 0 -14 -3 -6 -6z"/>
<path d="M1371 1447 c-13 -16 -5 -27 21 -27 11 0 18 7 18 20 0 23 -22 27 -39
7z"/>
<path d="M750 720 c0 -23 22 -27 39 -7 13 16 5 27 -21 27 -11 0 -18 -7 -18
-20z"/>
<path d="M1205 620 c3 -5 8 -10 11 -10 2 0 4 5 4 10 0 6 -5 10 -11 10 -5 0 -7
-4 -4 -10z"/>
</g>
</svg>
